<?xml version="1.0" encoding="utf-8"?>
<!-- Generator: Adobe Illustrator 16.0.0, SVG Export Plug-In . SVG Version: 6.00 Build 0)  -->
<!DOCTYPE svg PUBLIC "-//W3C//DTD SVG 1.1//EN" "http://www.w3.org/Graphics/SVG/1.1/DTD/svg11.dtd">
<svg version="1.1" id="Layer_1" xmlns="http://www.w3.org/2000/svg" xmlns:xlink="http://www.w3.org/1999/xlink" x="0px" y="0px"
	 width="155.431px" height="278.87px" viewBox="0 0 155.431 278.87" enable-background="new 0 0 155.431 278.87"
	 xml:space="preserve">
<pattern  x="-519.118" y="-261.638" width="16" height="16" patternUnits="userSpaceOnUse" id="New_Pattern" viewBox="1.516 -17.517 16 16" overflow="visible">
	<g>
		<polygon fill="none" points="1.516,-17.517 17.516,-17.517 17.516,-1.517 1.516,-1.517 		"/>
		<path fill="#47E86A" d="M15.031-1.516C15.031-0.678,14.354,0,13.516,0C12.679,0,12-0.678,12-1.516s0.679-1.516,1.516-1.516
			C14.354-3.031,15.031-2.354,15.031-1.516z"/>
		<path fill="#47E86A" d="M7.031-1.516C7.031-0.678,6.354,0,5.516,0C4.679,0,4-0.678,4-1.516s0.679-1.516,1.516-1.516
			C6.354-3.031,7.031-2.354,7.031-1.516z"/>
		<path fill="#47E86A" d="M19.031-9.516C19.031-8.678,18.354-8,17.516-8C16.679-8,16-8.678,16-9.516s0.679-1.516,1.516-1.516
			C18.354-11.031,19.031-10.354,19.031-9.516z"/>
		<path fill="#47E86A" d="M11.031-9.516C11.031-8.678,10.354-8,9.516-8C8.679-8,8-8.678,8-9.516s0.679-1.516,1.516-1.516
			C10.354-11.031,11.031-10.354,11.031-9.516z"/>
		<path fill="#47E86A" d="M3.031-9.516C3.031-8.678,2.354-8,1.516-8C0.679-8,0-8.678,0-9.516s0.679-1.516,1.516-1.516
			C2.354-11.031,3.031-10.354,3.031-9.516z"/>
		<path fill="#47E86A" d="M15.031-17.516c0,0.838-0.678,1.516-1.516,1.516C12.679-16,12-16.678,12-17.516s0.679-1.516,1.516-1.516
			C14.354-19.031,15.031-18.354,15.031-17.516z"/>
		<path fill="#47E86A" d="M7.031-17.516C7.031-16.678,6.354-16,5.516-16C4.679-16,4-16.678,4-17.516s0.679-1.516,1.516-1.516
			C6.354-19.031,7.031-18.354,7.031-17.516z"/>
	</g>
</pattern>
<g>
	<path fill="none" stroke="#47E86A" stroke-width="2" stroke-miterlimit="10" d="M5.209,129.916
		c3.631-17.454,13.151-28.964,30.547-33.882c17.395-4.918,27.222-0.824,47.669-4.359c15.307-2.646,23.369-7.448,30.178-12.777
		c6.809-5.33,14.469-15.225,14.869-20.384c0.4-5.16-4.381-14.952-13.049-12.329"/>
	<path fill="none" stroke="#47E86A" stroke-width="2" stroke-miterlimit="10" d="M10.372,92.6
		c-3.397-12.845,3.111-25.748,32.555-27.389c31.261-1.743,47.19-6.032,57.077-13.966c4.365-3.502,2.336-10.264-5.803-10.281"/>
	<path fill="none" stroke="#47E86A" stroke-width="2" stroke-miterlimit="10" d="M11.682,76.34
		c-4.025-6.628,12.344-12.966,20.026-22.271c7.684-9.306,5.032-26.358-0.358-33.496C25.959,13.436,19.586,6.48,23.018,3.048
		c3.433-3.433,22.065-3.116,35.571,5.358c10.741,6.74,7.353,13.205,16.008,19.154c12.918,8.878,15.67,16.42,15.481,28.659"/>
	<path fill="none" stroke="#47E86A" stroke-width="2" stroke-miterlimit="10" d="M63.511,12.325
		c8.845,0.396,16.22,5.894,25.854,18.093c4.459,5.646,8.697,4.42,16.279,6.899c6.947,2.272,8.963,5.374,9.691,9.307
		c0.729,3.933-0.775,8.619-8.16,14.055c-7.383,5.436-21.959,10.51-39.065,12.832C32.148,78.395,8.975,85.062,1.876,110.786
		c-4.094,14.838,7.035,26.072,15.283,25.306"/>
	<path fill="none" stroke="#47E86A" stroke-width="2" stroke-miterlimit="10" d="M33.053,9.423
		c5.471,4.339,9.495,8.059,11.15,14.192c2.702,10.009-1.736,14.457,0.057,21.347c1.767,6.792,5.286,10.037,11.091,13.2"/>
	<path fill="none" stroke="#47E86A" stroke-width="2" stroke-miterlimit="10" d="M128.472,58.513
		c10.789,1.052,21.131,11.594,10.234,22.766s-29.797,16.2-43.59,17.23"/>
	<path fill="none" stroke="#47E86A" stroke-width="2" stroke-miterlimit="10" d="M141.494,78.475
		c6.455,4.652,6.045,9.304,0.656,15.896s-11.084,12.948-24.744,16.026c-19.037,4.29-32.404-7.472-51.987-6.131
		c-10.485,0.718-24.336,4.509-29.196,15.326"/>
	<path fill="none" stroke="#47E86A" stroke-width="2" stroke-miterlimit="10" d="M92.843,115.966
		c-6.875-2.794-16.908-2.969-28.653,2.258c-11.744,5.227-17.405,17.209-24.406,23.337c-6.033,5.281-12.578,5.802-18.163,1.459
		c-3.169-2.464-5.149-9.149-1.376-13.602c6.815-8.043,15.635-9.847,29.151-8.707"/>
	<path fill="none" stroke="#47E86A" stroke-width="2" stroke-miterlimit="10" d="M145.009,91.044
		c-0.17,2.744-1.141,6.653,3.047,10.962c4.189,4.309,7.348,10.376,6.1,15.311c-1.514,5.997-7.662,9.193-13.26,10.085
		c-9.754,1.553-11.803-6.076-21.789-7.828c-7.051-1.236-12.928,3.413-19.557,9.726c-6.627,6.312-16.416,12.024-30.747,15.188
		c-12.476,2.756-20.716,1.636-27.678-3.007"/>
	<path fill="none" stroke="#47E86A" stroke-width="2" stroke-miterlimit="10" d="M99.55,129.301
		c8.766-0.269,13.455,7.538,20.812,5.975c4.648-0.989,7.98-4.276,9.377-9.535"/>
</g>
<path fill="none" stroke="#47E86A" stroke-width="2" stroke-miterlimit="10" d="M124.523,134.166c0,0-1.326,136.237-1.383,138.909
	c-0.148,6.978-3.318,5.87-6.158-0.299L40.386,142.975"/>
<g>
	<path fill="url(#New_Pattern)" d="M40.386,142.975l76.596,129.801c2.84,6.169,6.01,7.276,6.158,0.299
		c0.057-2.672,1.383-138.909,1.383-138.909l-0.732-0.167c-1.041,0.585-2.188,1.012-3.428,1.276
		c-7.357,1.563-12.047-6.243-20.812-5.975l0,0c-6.627,6.312-16.416,12.024-30.747,15.188c-12.476,2.756-20.716,1.636-27.678-3.007
		L40.386,142.975z"/>
</g>
<g>
</g>
<g>
</g>
<g>
</g>
<g>
</g>
<g>
</g>
<g>
</g>
<g>
</g>
<g>
</g>
<g>
</g>
<g>
</g>
<g>
</g>
<g>
</g>
<g>
</g>
<g>
</g>
<g>
</g>
</svg>
